<?xml version="1.0" encoding="utf-8"?>
<!-- Generator: Adobe Illustrator 16.0.3, SVG Export Plug-In . SVG Version: 6.00 Build 0)  -->
<!DOCTYPE svg PUBLIC "-//W3C//DTD SVG 1.1//EN" "http://www.w3.org/Graphics/SVG/1.1/DTD/svg11.dtd">
<svg version="1.1" id="Layer_1" xmlns="http://www.w3.org/2000/svg" xmlns:xlink="http://www.w3.org/1999/xlink" x="0px" y="0px"
	 width="1024px" height="309.999px" viewBox="0.001 357.002 1024 309.999" enable-background="new 0.001 357.002 1024 309.999"
	 xml:space="preserve">
<path d="M1016.851,560.383c-157.082-44.329-295.489-97.756-411.373-158.779l-79.817-42.053c-6.436-3.398-20.873-3.398-27.308,0
	l-79.819,42.053c-115.888,61.021-254.299,114.45-411.38,158.779c-4.489,1.264-7.151,3.308-7.151,5.482v94.391
	c0,2.53,3.566,4.844,9.25,5.996c5.685,1.161,12.526,0.96,17.732-0.512l19.558-5.519c146.91-41.45,278.085-90.846,389.905-146.798
	l75.555-37.811l75.555,37.804c111.82,55.961,242.995,105.354,389.906,146.807l19.558,5.517c2.952,0.844,6.418,1.261,9.917,1.261
	c2.662,0,5.343-0.25,7.814-0.749c5.684-1.149,9.251-3.466,9.251-5.993v-94.392C1024.002,563.691,1021.34,561.647,1016.851,560.383z"
	/>
</svg>
